# xmcd
#
# Track frame offsets:
#	150
#	15783
#	30580
#	44415
#	61670
#	82198
#	96745
#	113936
#	131564
#	151491
#	165126
#	176123
#	198327
#	205768
#
# Disc length: 2858 seconds
#
# Revision: 0
# Processed by: cddbd v1.5.2PL0 Copyright (c) Steve Scherf et al.
# Submitted via: EasyCDDAExtractor 10.0.1.1
#
DISCID=b20b280e
DTITLE=The New Congress - Everybody Gets UP
DYEAR=1900
DGENRE=
TTITLE0=Make You Move
TTITLE1=Can't Be Me
TTITLE2=Sex In The Light Years
TTITLE3=Ain't About You
TTITLE4=Under The Eyes
TTITLE5=Loss of Identy
TTITLE6=Shockwaves
TTITLE7=What a Life
TTITLE8=All That
TTITLE9=Without Reason
TTITLE10=Solitude
TTITLE11=Only Human
TTITLE12=Drunk Song
TTITLE13=Frank
EXTD=
EXTT0=
EXTT1=
EXTT2=
EXTT3=
EXTT4=
EXTT5=
EXTT6=
EXTT7=
EXTT8=
EXTT9=
EXTT10=
EXTT11=
EXTT12=
EXTT13=
PLAYORDER=
